<svg width="32" height="32" viewBox="0 0 32 32" fill="none" xmlns="http://www.w3.org/2000/svg">
<g clip-path="url(#clip0_339_2)">
<mask id="mask0_339_2" style="mask-type:luminance" maskUnits="userSpaceOnUse" x="0" y="0" width="32" height="32">
<path d="M32 0H0V32H32V0Z" fill="white"/>
</mask>
<g mask="url(#mask0_339_2)">
<path d="M32 16C32 7.16344 24.8366 0 16 0C7.16344 0 0 7.16344 0 16C0 24.8366 7.16344 32 16 32C24.8366 32 32 24.8366 32 16Z" fill="white"/>
<path fill-rule="evenodd" clip-rule="evenodd" d="M14.7677 5.00891C13.9457 5.13252 13.0926 5.43591 12.4722 5.82527C11.4113 6.49109 10.5309 7.56912 10.0887 8.74367C9.97562 9.0441 9.81693 9.70113 9.78127 10.0167C9.75613 10.2388 9.75613 10.2388 10.1442 10.2669C12.2654 10.4204 14.1214 11.589 15.1793 13.4371C15.2914 13.6331 15.4042 13.8514 15.4298 13.9221C15.4554 13.9929 15.4861 14.0505 15.4981 14.0501C15.51 14.0498 15.5626 13.9506 15.6149 13.8297C15.8627 13.2573 16.3972 12.5227 16.957 11.9853C18.0097 10.9747 19.3711 10.3743 20.8536 10.267C21.2973 10.2349 21.27 10.2763 21.1816 9.76959C20.9037 8.17544 19.9366 6.72639 18.5638 5.84712C18.2851 5.6686 17.7104 5.39486 17.3802 5.28329C16.7363 5.06576 16.4425 5.01873 15.6385 5.00444C15.2249 4.99707 14.833 4.99909 14.7677 5.00891ZM9.74161 11.0258C9.78305 11.5419 9.87999 12.0686 10.0069 12.4671C10.6569 14.5085 12.3584 16.011 14.4653 16.4042C14.6473 16.4382 14.8611 16.4686 14.9403 16.4719C15.0713 16.4773 15.0736 16.4792 14.9656 16.493C14.2635 16.5826 13.4479 16.8173 12.9277 17.0793C12.4547 17.3176 11.9252 17.7024 11.4953 18.1205C10.4326 19.1539 9.86665 20.3883 9.74157 21.9458C9.71643 22.2588 9.71643 22.2588 10.1442 22.233C12.1385 22.1125 13.9783 20.8886 14.8853 19.0791C15.2082 18.4348 15.4574 17.6145 15.4595 17.1885C15.46 17.096 15.4782 17.0202 15.5 17.0202C15.5218 17.0202 15.54 17.096 15.5405 17.1885C15.5426 17.614 15.7915 18.4339 16.1144 19.0791C17.0253 20.8992 18.8678 22.1207 20.8756 22.2353C21.2835 22.2586 21.2835 22.2586 21.2584 21.9457C21.1889 21.0804 20.9984 20.3697 20.6437 19.6531C20.0037 18.3601 18.7772 17.2808 17.409 16.8068C17.0596 16.6858 16.4445 16.5453 16.0344 16.493C15.9288 16.4795 15.9319 16.4772 16.0627 16.4719C16.305 16.4621 16.9663 16.3222 17.3 16.2102C18.5462 15.7918 19.5887 14.9881 20.3166 13.8846C20.8745 13.0387 21.1684 12.1468 21.2584 11.0258C21.2835 10.7128 21.2835 10.7128 20.8919 10.7367C19.2008 10.8397 17.6586 11.6843 16.6037 13.0852C16.3548 13.4157 15.917 14.2601 15.7801 14.6741C15.6697 15.0076 15.5396 15.6018 15.5396 15.7726C15.5396 15.8491 15.5218 15.9117 15.5 15.9117C15.4782 15.9117 15.4604 15.8491 15.4604 15.7726C15.4604 15.6018 15.3303 15.0076 15.2199 14.6741C15.083 14.2601 14.6452 13.4157 14.3963 13.0852C13.9859 12.5401 13.4652 12.0441 12.9271 11.6853C12.0965 11.1316 11.1031 10.7973 10.1081 10.7367C9.71647 10.7128 9.71647 10.7128 9.74161 11.0258ZM8.57296 10.8441C7.44282 11.0914 6.51519 11.5959 5.69962 12.4068C4.83766 13.2638 4.33198 14.2063 4.07426 15.4365C3.96825 15.9425 3.97732 17.1018 4.09136 17.6214C4.48113 19.3973 5.59449 20.8516 7.17136 21.6444C7.7332 21.9269 8.5819 22.1788 9.08754 22.2132C9.26566 22.2253 9.26566 22.2253 9.29052 21.8103C9.38105 20.2998 9.99542 18.9575 11.1037 17.8491C11.6374 17.3152 12.0835 16.9882 12.7018 16.6776C12.8956 16.5803 13.0456 16.4921 13.0352 16.4817C13.0248 16.4713 12.8591 16.3819 12.667 16.283C10.8841 15.3654 9.66664 13.6877 9.34522 11.7053C9.31253 11.5037 9.28569 11.2096 9.28561 11.0517C9.28545 10.7646 9.28545 10.7646 9.09743 10.7676C8.994 10.7692 8.75801 10.8037 8.57296 10.8441ZM21.7144 11.0517C21.7142 11.3901 21.6285 11.9509 21.5123 12.3747C21.0493 14.0629 19.8991 15.4773 18.3351 16.282C18.1418 16.3814 17.9752 16.4713 17.9648 16.4817C17.9544 16.4921 18.1044 16.5803 18.2982 16.6776C19.4516 17.257 20.4788 18.2762 21.0454 19.4033C21.4554 20.2189 21.6581 20.9538 21.7095 21.8103C21.7343 22.2253 21.7343 22.2253 21.9125 22.2132C22.1912 22.1942 22.8051 22.0525 23.1769 21.9213C24.0374 21.6176 24.7769 21.1314 25.443 20.4312C26.1815 19.6549 26.6663 18.7256 26.9086 17.6214C27.0227 17.1018 27.0317 15.9425 26.9257 15.4365C26.668 14.2063 26.1623 13.2638 25.3004 12.4068C24.48 11.5911 23.5361 11.0794 22.4149 10.8427C22.2148 10.8005 21.9753 10.7656 21.8828 10.7653C21.7145 10.7646 21.7145 10.7646 21.7144 11.0517ZM15.3615 19.1887C15.2095 19.5289 14.88 20.0539 14.6042 20.3954C13.5099 21.7502 11.8889 22.594 10.1631 22.7071C9.69858 22.7375 9.73009 22.6881 9.82418 23.2392C10.1022 24.8669 11.1402 26.3588 12.592 27.2174C13.5813 27.8024 14.7843 28.0751 15.9661 27.9822C16.9659 27.9035 17.8711 27.5855 18.7458 27.0053C19.1922 26.7094 19.9703 25.9316 20.2589 25.493C20.7222 24.7889 21.0478 23.9884 21.1758 23.2392C21.2699 22.6881 21.3014 22.7375 20.8369 22.7071C19.1024 22.5934 17.4714 21.7405 16.3858 20.3796C16.0979 20.0186 15.7903 19.5284 15.6385 19.1887C15.5732 19.0425 15.5109 18.9228 15.5 18.9228C15.4891 18.9228 15.4268 19.0425 15.3615 19.1887Z" fill="black"/>
</g>
</g>
<defs>
<clipPath id="clip0_339_2">
<rect width="32" height="32" fill="white"/>
</clipPath>
</defs>
</svg>
